<svg width="78" height="78" viewBox="0 0 78 78" fill="none" xmlns="http://www.w3.org/2000/svg">
<path d="M55 21H71C73.2092 21 75 23.0147 75 25.5V75L61.668 62.5395C60.95 61.8681 60.0432 61.5 59.1092 61.5H27C24.7908 61.5 23 59.4853 23 57V43.5M55 21V7.5C55 5.01474 53.2092 3 51 3H7C4.79088 3 3 5.01474 3 7.5V57.0013L16.332 44.5386C17.0502 43.8676 17.957 43.5 18.8906 43.5H23M55 21V39C55 41.4853 53.2092 43.5 51 43.5H23" stroke="#377DFF" stroke-width="6" stroke-linecap="round" stroke-linejoin="round"/>
</svg>
